/vscmnt/brussel_pixiu_data/_data_brussel/112/vsc11236/PredSimResults/SUBJ06opt3D/weighted-trackIG/worker_05.mot
version=1
nRows=4
nColumns=50
inDegrees=yes
endheader
                time	         pelvis_tilt	         pelvis_list	     pelvis_rotation	           pelvis_tx	           pelvis_ty	           pelvis_tz	       hip_flexion_r	     hip_adduction_r	      hip_rotation_r	        knee_angle_r	       ankle_angle_r	         mtp_angle_r	       hip_flexion_l	     hip_adduction_l	      hip_rotation_l	        knee_angle_l	       ankle_angle_l	         mtp_angle_l	    lumbar_extension	      lumbar_bending	     lumbar_rotation	 ercspn_r/activation	 intobl_r/activation	 extobl_r/activation	    abd_r/activation	    add_r/activation	hamstrings_r/activation	bifemsh_r/activation	glut_max_r/activation	iliopsoas_r/activation	rect_fem_r/activation	  vasti_r/activation	gastroc_r/activation	 soleus_r/activation	tib_ant_r/activation	 ercspn_l/activation	 intobl_l/activation	 extobl_l/activation	    abd_l/activation	    add_l/activation	hamstrings_l/activation	bifemsh_l/activation	glut_max_l/activation	iliopsoas_l/activation	rect_fem_l/activation	  vasti_l/activation	gastroc_l/activation	 soleus_l/activation	tib_ant_l/activation	
          0.64836318	         -5.56718379	          0.96094190	         -3.35918465	          0.64187955	          0.93509128	          0.01221698	         -8.32976300	         -0.39546374	         -6.06993485	        -10.95258646	         10.53679503	         30.20838753	         30.57841466	         -0.66935448	         -4.79351929	         -7.26993827	         -0.16740106	          0.21616070	         -4.98953542	          0.54273651	          7.76970395	          0.11230469	          0.00999999	          0.00999999	          0.12177568	          0.00999999	          0.00999999	          0.28712420	          0.01324692	          0.59577301	          0.01273394	          0.00999999	          0.24788439	          0.41294457	          0.02634359	          0.19059836	          0.16667186	          0.00999999	          0.00999999	          0.26109468	          0.05659771	          0.07075671	          0.01521518	          0.13304180	          0.01767591	          0.00999999	          0.00999999	          0.00999999	          0.48866314	
          0.66133044	         -5.70016047	          0.86865666	         -3.32324890	          0.65751861	          0.93311677	          0.01095280	         -8.72207621	         -0.45295979	         -6.56126556	        -11.75059366	          9.87692829	         31.96869219	         30.83458867	         -0.48598259	         -4.61638424	         -8.94599375	         -0.43205695	          0.21950365	         -4.63698525	          0.21627751	          8.32255851	          0.14214359	          0.00999999	          0.00999999	          0.10013450	          0.00999999	          0.00999999	          0.27417185	          0.01089277	          0.62011764	          0.01216120	          0.00999999	          0.23585326	          0.39785355	          0.02166198	          0.18414084	          0.13705203	          0.00999999	          0.00999999	          0.41334230	          0.06541355	          0.05818230	          0.04298440	          0.10939849	          0.01453466	          0.00999999	          0.00999999	          0.01798581	          0.48138448	
          0.67429771	         -5.80831297	          0.82576317	         -3.27629275	          0.67368820	          0.93136042	          0.00967162	         -9.01753193	         -0.59016283	         -7.03390238	        -12.81469383	          9.08830051	         33.80899887	         30.91155002	         -0.33543772	         -4.26154231	        -10.66137450	         -0.64279101	          0.19600136	         -4.24788408	         -0.18223635	          8.83186576	          0.13538977	          0.00999999	          0.00999999	          0.08233926	          0.00999999	          0.00999999	          0.25908444	          0.00999999	          0.60396181	          0.00999999	          0.00999999	          0.20478687	          0.37799146	          0.01781235	          0.15268277	          0.11269604	          0.00999999	          0.00999999	          0.33988582	          0.07453934	          0.04784252	          0.03534549	          0.08995691	          0.01195166	          0.02871802	          0.01216120	          0.01478949	          0.51849169	
          0.68726497	         -5.89429145	          0.82659009	         -3.21126193	          0.69021381	          0.92989702	          0.00827782	         -9.14820767	         -0.81345347	         -7.49873315	        -14.23677301	          8.13843064	         35.74048699	         30.79722441	         -0.16628978	         -4.01618914	        -12.07789391	         -1.02808978	          0.18622590	         -3.84480237	         -0.63055806	          9.28851279	          0.13820853	          0.00999999	          0.00999999	          0.06770646	          0.00999999	          0.01063951	          0.22785088	          0.00999999	          0.55262816	          0.00999999	          0.00999999	          0.16839349	          0.35163145	          0.01464686	          0.13617384	          0.09266844	          0.00999999	          0.00999999	          0.27948354	          0.07840061	          0.03934026	          0.04708387	          0.07397035	          0.00999999	          0.07111955	          0.00999999	          0.01216120	          0.56618720	
